<?xml version="1.0" encoding="UTF-8"?>
<!DOCTYPE svg PUBLIC "-//W3C//DTD SVG 1.1//EN" "http://www.w3.org/Graphics/SVG/1.1/DTD/svg11.dtd">
<!-- Creator: CorelDRAW 2019 (64-Bit) -->
<svg xmlns="http://www.w3.org/2000/svg" xml:space="preserve" width="210mm" height="297mm" version="1.1" style="shape-rendering:geometricPrecision; text-rendering:geometricPrecision; image-rendering:optimizeQuality; fill-rule:evenodd; clip-rule:evenodd"
viewBox="0 0 21000 29700"
 xmlns:xlink="http://www.w3.org/1999/xlink"
 xmlns:xodm="http://www.corel.com/coreldraw/odm/2003">
 <defs>
  <style type="text/css">
   <![CDATA[
    .fil0 {fill:#F08519}
   ]]>
  </style>
 </defs>
 <g id="图层_x0020_1">
  <metadata id="CorelCorpID_0Corel-Layer"/>
  <g id="_1986666169760">
   <path class="fil0" d="M10381.36 11651.78c1.09,7.07 2.13,14.18 3.14,21.27 177.71,1260.4 -1001.7,2424.96 -2638.36,2611.68l0.03 0.21 -8.53 0.8c-3.11,0.35 -6.17,0.77 -9.28,1.12l-0.04 -0.23c-1639.86,164.04 -3107.68,-717.11 -3285.39,-1977.5 -1,-7.11 -1.95,-14.21 -2.87,-21.31l-18.24 1.95c-185.13,-1389.97 959.02,-2682.79 2646.45,-3107.28 -1062.98,730.26 -1674.35,1825.99 -1517.69,2977.21l15.16 -1.63 0.09 0.52 -15.14 1.61c111.58,791.6 1037.32,1343.94 2068.27,1234.53l-1.64 -11.64 1.66 -0.15 2.12 14.99c814.4,-96.09 1400.17,-676.69 1311.61,-1304.93 -13.71,-97.26 -42.89,-190 -85.25,-277.01l-4.59 0.5c-228.49,-457.25 -825.81,-753.39 -1489.85,-708.34 -26.23,1.4 -52.62,3.45 -79.12,6.28 -563.68,60.36 -985.08,429.68 -1005.46,854.09 -37.28,-826.91 761.43,-1567.61 1847.58,-1683.87 1137.55,-121.79 2159.49,487.4 2282.59,1360.67l0.56 4.55 -17.81 1.91z"/>
   <path class="fil0" d="M4894.12 7453.95l0.98 -16.82c70.62,-1119.22 1184.45,-1978.87 2492.77,-1928.74l0.01 -0.19 7.07 0.41 7.13 0.24 -0.01 0.19c1307.05,70.25 2306.23,1027.18 2235.61,2146.4l-1.15 16.8 13.52 0.63c-86.35,1232.88 -1193.97,2208.65 -2581.38,2358.73 950.2,-496.73 1609.04,-1369.45 1678.71,-2390.08l-11.05 -0.51 0.01 -0.45 11.07 0.51c0.23,-3.25 0.52,-6.47 0.72,-9.71l0.77 0.03c37.93,-698.71 -590.65,-1293.94 -1409.59,-1332.46l-0.66 10.32 -1.32 -0.08 0.83 -13.31c-651.54,-22.17 -1205.1,406.7 -1240.31,964.58 -5.41,85.61 1.77,169.32 20.04,249.83l3.26 0.16c102.37,427.32 519.35,762.43 1045.09,809.48 20.7,2.19 41.63,3.83 62.78,4.8 449.94,20.71 840.15,-245.78 926.52,-612.21 -108.22,723.97 -854.57,1264.44 -1721.54,1224.53 -907.98,-41.79 -1604.35,-704.3 -1555.42,-1479.76l0.31 -4.03 15.23 0.71z"/>
  </g>
 </g>
</svg>
